<?xml version="1.0" encoding="UTF-8"?>
<svg version="1.1" xmlns="http://www.w3.org/2000/svg" width="192" height="192">
<path d="M0 0 C7.01515462 5.76041152 11.83338555 13.15767782 15.72265625 21.26171875 C16.41647386 22.67774589 17.11066254 24.09359126 17.80517578 25.50927734 C18.34238251 26.61139557 18.34238251 26.61139557 18.89044189 27.73577881 C20.77141783 31.57419479 22.69909595 35.38904152 24.62109375 39.20703125 C25.42021566 40.79998286 26.21904128 42.39308314 27.01757812 43.98632812 C28.2248846 46.39484726 29.4327593 48.8030695 30.64282227 51.21020508 C36.23831293 62.34326677 41.6824253 73.53686493 46.97531128 84.81698608 C47.93405055 86.85950019 48.89613207 88.90039596 49.85961914 90.94067383 C51.51893167 94.45655577 53.16632307 97.97794703 54.8125 101.5 C55.35841797 102.65757813 55.90433594 103.81515625 56.46679688 105.0078125 C63.12480153 119.27381522 67.99265662 131.42926566 63.5625 147.3125 C60.26132871 156.04881403 52.93372232 163.70929132 44.78125 168.23046875 C35.13994392 172.27519476 25.00090905 173.29759704 15 170 C14.21238281 169.75378906 13.42476563 169.50757813 12.61328125 169.25390625 C0.94068201 165.13093164 -7.65669017 156.83196355 -16 148 C-16.969375 148.825 -17.93875 149.65 -18.9375 150.5 C-19.5871875 151.04914063 -20.236875 151.59828125 -20.90625 152.1640625 C-22.27774462 153.36667905 -23.61378174 154.61126624 -24.90625 155.8984375 C-34.12060508 164.86471379 -47.3153955 171.94329857 -60.3359375 172.01953125 C-67.68601925 171.72960265 -73.61881495 170.6936735 -80 167 C-81.03125 166.4225 -82.0625 165.845 -83.125 165.25 C-91.22097917 158.9140163 -97.16266715 150.55010375 -98.484375 140.2109375 C-99.5216859 125.54790638 -94.81641522 114.70019784 -88.36279297 101.74072266 C-86.66137079 98.31898039 -85.08241702 94.85322225 -83.5 91.375 C-82.66136326 89.60011797 -81.82249574 87.82533747 -80.97802734 86.05322266 C-79.83120182 83.64563338 -78.69141875 81.23474569 -77.55078125 78.82421875 C-68.42938489 59.60070197 -59.04423185 40.50443173 -48.94775391 21.77197266 C-48.05863142 20.10962052 -47.19064936 18.43601007 -46.32421875 16.76171875 C-41.62875668 7.79544881 -36.2292776 -0.18519263 -26.20703125 -3.61328125 C-17.3882017 -5.15852749 -7.56440641 -5.22743532 0 0 Z M-32.74609375 14.00390625 C-36.33433797 18.77372136 -38.57966442 24.02228376 -40.96875 29.46484375 C-43.2204934 34.59173804 -45.83418386 39.49337961 -48.50390625 44.41210938 C-58.71506016 63.33962851 -67.70872231 82.9354443 -76.83789062 102.39892578 C-78.13173271 105.15718237 -79.43228476 107.91180287 -80.74804688 110.65966797 C-88.67150404 127.10331853 -88.67150404 127.10331853 -87.0625 144.8984375 C-83.44479483 153.01447343 -77.71605949 156.99908027 -70 161 C-60.60521002 163.818437 -53.29937705 161.85964572 -44.85913086 157.48535156 C-38.79234567 154.13485302 -33.82684556 149.96853379 -29 145 C-28.15115234 144.16855469 -28.15115234 144.16855469 -27.28515625 143.3203125 C-26.17350417 142.230216 -25.08273359 141.11882471 -24 140 C-25.34881831 137.1032521 -26.90244861 134.69662625 -28.875 132.1875 C-40.56133027 116.7840719 -46.99431618 100.3628485 -45 81 C-43.20004433 74.16981107 -39.13027503 68.59747401 -33 65 C-27.32231112 62.29186495 -22.25009269 61.50383872 -16 61.5625 C-14.86691406 61.5325293 -14.86691406 61.5325293 -13.7109375 61.50195312 C-6.50883574 61.5081405 -0.42121835 64.03058192 4.75 69.125 C11.26513995 76.17685629 12.69478273 83.95050134 12.37890625 93.35546875 C10.77320688 108.79997914 3.41106441 121.50973748 -6.1796875 133.34375 C-8.65521746 136.86499147 -8.65521746 136.86499147 -9 141 C-7.04163093 143.4440941 -5.25549553 145.32244217 -2.9375 147.375 C-2.30787354 147.94573242 -1.67824707 148.51646484 -1.02954102 149.10449219 C7.98279013 156.96581318 18.41403195 162.47561721 30.60546875 162.2734375 C38.40005339 161.38335443 44.84580204 156.69060771 50 151 C54.12779995 145.36901279 55.27823092 138.90012672 55 132 C53.63569355 124.32041338 50.28856156 117.4913524 47.0625 110.4375 C46.47735697 109.14635961 45.89248084 107.85509822 45.30786133 106.5637207 C38.56668329 91.7166203 31.52969606 77.01874402 24.22053528 62.44316101 C22.00755603 58.02668621 19.81410295 53.60111309 17.63511658 49.16777039 C16.10674582 46.0599968 14.57147064 42.95565719 13.03564453 39.8515625 C12.25549437 38.27091329 11.47819382 36.68885473 10.70361328 35.10546875 C4.79918792 22.9698572 4.79918792 22.9698572 -3 12 C-3.639375 11.21625 -4.27875 10.4325 -4.9375 9.625 C-14.40380032 2.16670278 -25.40178394 6.23708115 -32.74609375 14.00390625 Z M-33.4375 78.60546875 C-36.67314028 83.33534569 -36.68398295 88.45655682 -36 94 C-34.7769778 99.82734109 -32.93027408 104.9455595 -30.375 110.3125 C-29.85583008 111.41356079 -29.85583008 111.41356079 -29.32617188 112.53686523 C-26.22232912 118.91861761 -22.48052715 124.48275513 -18 130 C-14.5264079 128.5806828 -13.04713073 127.03061784 -11.0625 123.875 C-10.29292969 122.65683594 -10.29292969 122.65683594 -9.5078125 121.4140625 C-9.01023437 120.61742187 -8.51265625 119.82078125 -8 119 C-7.56429687 118.36835938 -7.12859375 117.73671875 -6.6796875 117.0859375 C0.09340354 107.07539414 3.78287791 96.13842712 2 84 C0.38746988 80.05291134 -1.23693751 77.35225958 -4.5625 74.6875 C-5.46162109 73.95080078 -5.46162109 73.95080078 -6.37890625 73.19921875 C-15.1780409 66.68997938 -26.88850172 71.29123425 -33.4375 78.60546875 Z " fill="#F25C63" transform="translate(111,13)"/>
<path d="M0 0 C0.33 0 0.66 0 1 0 C1.29162929 4.95769796 1.12940055 8.02806853 -2 12 C-2.66 12 -3.32 12 -4 12 C-2.66666667 8 -1.33333333 4 0 0 Z " fill="#C8565F" transform="translate(112,111)"/>
<path d="M0 0 C0.33 0 0.66 0 1 0 C1.33 2.64 1.66 5.28 2 8 C0.68 8 -0.64 8 -2 8 C-1.47731534 5.23723823 -0.89130413 2.6739124 0 0 Z " fill="#F76573" transform="translate(17,127)"/>
<path d="M0 0 C0.33 0 0.66 0 1 0 C1.25 2.8125 1.25 2.8125 1 6 C-1 7.875 -1 7.875 -3 9 C-2.44271087 5.65626525 -1.64826111 2.96687001 0 0 Z " fill="#D55560" transform="translate(103,130)"/>
<path d="M0 0 C0 0.66 0 1.32 0 2 C-2.31 3.32 -4.62 4.64 -7 6 C-6.75 4.125 -6.75 4.125 -6 2 C-3.85331506 0.61504198 -2.56128588 0 0 0 Z " fill="#DA5766" transform="translate(86,84)"/>
<path d="M0 0 C0.33 0 0.66 0 1 0 C1 1.98 1 3.96 1 6 C-0.98 6.99 -0.98 6.99 -3 8 C-1.125 2.25 -1.125 2.25 0 0 Z " fill="#F16A7C" transform="translate(52,54)"/>
</svg>
